<?xml version="1.0" encoding="UTF-8"?>
<!DOCTYPE svg PUBLIC "-//W3C//DTD SVG 1.1//EN" "http://www.w3.org/Graphics/SVG/1.1/DTD/svg11.dtd">
<svg xmlns="http://www.w3.org/2000/svg" version="1.1" width="689px" height="325px" style="shape-rendering:geometricPrecision; text-rendering:geometricPrecision; image-rendering:optimizeQuality; fill-rule:evenodd; clip-rule:evenodd" xmlns:xlink="http://www.w3.org/1999/xlink">
<g><path style="opacity:0.723" fill="#fdf6f6" d="M 653.5,16.5 C 675.977,16.1433 686.144,27.1433 684,49.5C 678.364,64.5732 667.53,70.7398 651.5,68C 637.102,62.9157 630.935,52.749 633,37.5C 636.016,26.6517 642.849,19.6517 653.5,16.5 Z"/></g>
<g><path style="opacity:1" fill="#c32d38" d="M 654.5,18.5 C 673.538,19.0336 682.705,28.7003 682,47.5C 677.567,62.1389 667.734,68.3055 652.5,66C 636.322,58.7976 631.488,46.9643 638,30.5C 642.279,24.7075 647.779,20.7075 654.5,18.5 Z"/></g>
<g><path style="opacity:1" fill="#faeaeb" d="M 656.5,25.5 C 657.822,25.33 658.989,25.6634 660,26.5C 660.95,36.8137 661.45,47.1471 661.5,57.5C 660.167,57.5 658.833,57.5 657.5,57.5C 657.377,46.8253 657.043,36.1586 656.5,25.5 Z"/></g>
<g><path style="opacity:1" fill="#faebec" d="M 645.5,35.5 C 651.286,34.3891 654.619,36.7225 655.5,42.5C 652.6,48.9335 648.434,49.9335 643,45.5C 640.712,41.3178 641.545,37.9844 645.5,35.5 Z"/></g>
<g><path style="opacity:1" fill="#f9e8e9" d="M 667.5,35.5 C 673.656,35.4871 676.49,38.4871 676,44.5C 673.947,48.2916 670.781,49.4582 666.5,48C 661.165,43.473 661.498,39.3063 667.5,35.5 Z"/></g>
<g><path style="opacity:1" fill="#c5363e" d="M 646.5,38.5 C 650.976,38.8003 652.31,40.9669 650.5,45C 646.265,44.7053 644.932,42.5386 646.5,38.5 Z"/></g>
<g><path style="opacity:1" fill="#c4313b" d="M 666.5,39.5 C 670.691,38.8686 672.525,40.5352 672,44.5C 667.974,45.6539 666.141,43.9872 666.5,39.5 Z"/></g>
<g><path style="opacity:0.97" fill="#fefffe" d="M 248.5,49.5 C 263.132,51.3065 277.632,53.6398 292,56.5C 299.385,102.81 306.552,149.144 313.5,195.5C 300.54,193.553 287.54,191.887 274.5,190.5C 274.33,180.792 273.663,171.125 272.5,161.5C 260.805,160.413 249.139,159.08 237.5,157.5C 234.999,166.17 231.999,174.67 228.5,183C 215.629,182.475 202.962,180.808 190.5,178C 210.251,135.334 229.584,92.5005 248.5,49.5 Z M 265.5,80.5 C 267.487,98.3269 269.154,116.327 270.5,134.5C 262.609,134.302 254.942,133.135 247.5,131C 253.998,114.338 259.998,97.5044 265.5,80.5 Z"/></g>
<g><path style="opacity:0.966" fill="#fefffe" d="M 498.5,68.5 C 526.45,75.4458 554.284,82.7791 582,90.5C 579.68,97.5005 577.013,104.5 574,111.5C 573.653,113.18 572.653,114.18 571,114.5C 556.581,110.437 542.081,106.77 527.5,103.5C 525.344,112.46 523.344,121.46 521.5,130.5C 532.843,133.224 544.176,136.057 555.5,139C 557.573,139.118 558.907,140.118 559.5,142C 557.667,148.833 555.833,155.667 554,162.5C 553.481,163.516 552.647,164.182 551.5,164.5C 539.239,161.394 527.072,158.06 515,154.5C 512.347,163.444 509.847,172.444 507.5,181.5C 507.608,182.442 507.941,183.275 508.5,184C 523.932,187.858 539.266,192.024 554.5,196.5C 552.455,205.022 549.955,213.356 547,221.5C 519.416,214.192 491.916,206.692 464.5,199C 476.378,155.653 487.712,112.153 498.5,68.5 Z"/></g>
<g><path style="opacity:0.967" fill="#fefffe" d="M 87.5,106.5 C 98.835,106.067 109.502,108.401 119.5,113.5C 116.656,121.562 113.156,129.228 109,136.5C 95.5637,131.689 82.7304,132.855 70.5,140C 64.2576,148.185 65.9243,154.185 75.5,158C 83.341,159.364 91.1743,159.53 99,158.5C 110.72,158.591 121.886,161.091 132.5,166C 147.577,177.558 153.41,192.725 150,211.5C 146.55,222.563 140.05,231.396 130.5,238C 106.028,253.863 80.3613,256.363 53.5,245.5C 56.8333,237.833 60.1667,230.167 63.5,222.5C 64.1667,222.167 64.8333,221.833 65.5,221.5C 72.0596,223.474 78.7262,224.808 85.5,225.5C 92.003,224.791 98.3363,223.291 104.5,221C 116.041,214.297 117.374,205.964 108.5,196C 105.899,195.08 103.232,194.413 100.5,194C 90.1667,193.667 79.8333,193.333 69.5,193C 39.8598,188.884 27.3598,172.051 32,142.5C 37.5,129 47,119.5 60.5,114C 69.3228,110.381 78.3228,107.881 87.5,106.5 Z"/></g>
<g><path style="opacity:0.96" fill="#fefcfc" d="M 159.5,116.5 C 177.362,113.842 189.529,120.842 196,137.5C 199.15,155.375 192.316,167.541 175.5,174C 157.625,177.15 145.459,170.316 139,153.5C 135.977,135.535 142.81,123.202 159.5,116.5 Z"/></g>
<g><path style="opacity:1" fill="#c22d38" d="M 176.5,128.5 C 178.196,128.685 179.529,129.519 180.5,131C 174,140.833 167.5,150.667 161,160.5C 159.887,161.711 158.72,161.711 157.5,160.5C 156.479,159.998 156.312,159.332 157,158.5C 163.77,148.614 170.27,138.614 176.5,128.5 Z"/></g>
<g><path style="opacity:1" fill="#c4323c" d="M 156.5,129.5 C 164.149,129.314 167.315,132.981 166,140.5C 161.829,146.729 157.163,147.062 152,141.5C 150.309,136.131 151.809,132.131 156.5,129.5 Z"/></g>
<g><path style="opacity:1" fill="#faecec" d="M 156.5,133.5 C 161.849,133.197 163.516,135.531 161.5,140.5C 159.647,141.76 157.814,141.76 156,140.5C 155.444,138.115 155.61,135.782 156.5,133.5 Z"/></g>
<g><path style="opacity:0.964" fill="#fefffe" d="M 383.5,134.5 C 385.335,135.122 386.502,136.456 387,138.5C 401.076,169.651 415.41,200.651 430,231.5C 444.483,224.67 458.983,217.837 473.5,211C 474.793,210.51 476.127,210.343 477.5,210.5C 479.516,219.228 481.849,227.895 484.5,236.5C 484.167,237.167 483.833,237.833 483.5,238.5C 458.726,249.97 433.893,261.304 409,272.5C 408.5,272.167 408,271.833 407.5,271.5C 388.833,231.167 370.167,190.833 351.5,150.5C 361.914,144.626 372.581,139.293 383.5,134.5 Z"/></g>
<g><path style="opacity:1" fill="#c63940" d="M 174.5,145.5 C 183.152,144.986 186.652,148.986 185,157.5C 181.042,162.436 176.709,162.769 172,158.5C 169.567,153.498 170.401,149.165 174.5,145.5 Z"/></g>
<g><path style="opacity:1" fill="#fcf4f4" d="M 175.5,149.5 C 181.245,148.825 182.911,151.159 180.5,156.5C 178.994,157.747 177.494,157.747 176,156.5C 175.503,154.19 175.337,151.857 175.5,149.5 Z"/></g>
<g><path style="opacity:0.954" fill="#fefcfd" d="M 343.5,192.5 C 366.488,193.651 377.322,205.651 376,228.5C 370.3,246.275 358.133,253.775 339.5,251C 320.093,242.679 313.926,228.513 321,208.5C 326.19,199.795 333.69,194.462 343.5,192.5 Z"/></g>
<g><path style="opacity:1" fill="#c63840" d="M 343.5,202.5 C 353.29,203.781 355.623,208.614 350.5,217C 342.024,220.192 337.857,217.358 338,208.5C 339.36,205.977 341.193,203.977 343.5,202.5 Z"/></g>
<g><path style="opacity:1" fill="#fcf2f3" d="M 344.5,206.5 C 347.127,206.293 348.793,207.46 349.5,210C 347.495,214.839 344.828,215.505 341.5,212C 342.124,209.915 343.124,208.082 344.5,206.5 Z"/></g>
<g><path style="opacity:1" fill="#c5343d" d="M 361.5,215.5 C 364.95,214.756 366.616,216.09 366.5,219.5C 354.396,222.859 342.396,226.525 330.5,230.5C 330.5,228.833 330.5,227.167 330.5,225.5C 341.17,222.922 351.504,219.589 361.5,215.5 Z"/></g>
<g><path style="opacity:1" fill="#c5353d" d="M 347.5,227.5 C 355.161,226.663 358.661,229.996 358,237.5C 355.565,242.224 351.731,243.724 346.5,242C 340.99,236.73 341.323,231.897 347.5,227.5 Z"/></g>
<g><path style="opacity:1" fill="#faecec" d="M 349.5,231.5 C 352.261,230.915 353.927,231.915 354.5,234.5C 352.478,240.248 349.812,240.748 346.5,236C 347.315,234.357 348.315,232.857 349.5,231.5 Z"/></g>
</svg>
