<svg width="16" height="15" xmlns="http://www.w3.org/2000/svg">

 <g>
  <title>background</title>
  <rect fill="none" id="canvas_background" height="602" width="802" y="-1" x="-1"/>
 </g>
 <g>
  <title>Layer 1</title>
  <path transform="rotate(5 7.585924148559566,7.328624248504636) " id="svg_1" fill="#EE1C47" d="m8.42753,14.3486c0,0 -8.16408,-3.6775 -8.62709,-8.96977c-0.08168,-0.93539 0.16313,-1.87021 0.6928,-2.64551c0.52967,-0.7753 1.31151,-1.34322 2.2126,-1.60722c0.90108,-0.26399 1.86578,-0.20776 2.73009,0.15914c0.8643,0.3669 1.57486,1.02182 2.01087,1.85341l-0.00002,0.00001c0.28498,-0.89467 0.87102,-1.66303 1.65848,-2.17444c0.78751,-0.51141 1.72771,-0.73431 2.66101,-0.6308c0.9332,0.10351 1.8018,0.52704 2.458,1.19859c0.6563,0.67154 1.0597,1.54964 1.1417,2.48502c0.463,5.29228 -6.93844,10.33157 -6.93844,10.33157z"/>
 </g>
</svg>