<svg width="40" height="40" viewBox="0 0 40 40" fill="none" xmlns="http://www.w3.org/2000/svg">
<path d="M29.5116 20.4883C29.3569 20.3334 29.1732 20.2105 28.9711 20.1267C28.7689 20.0428 28.5521 19.9997 28.3332 19.9997C28.1143 19.9997 27.8976 20.0428 27.6954 20.1267C27.4932 20.2105 27.3095 20.3334 27.1549 20.4883L24.4982 23.145C23.2666 22.7783 20.9682 21.945 19.5116 20.4883C18.0549 19.0317 17.2216 16.7333 16.8549 15.5017L19.5116 12.845C19.6665 12.6904 19.7894 12.5067 19.8732 12.3045C19.9571 12.1023 20.0002 11.8856 20.0002 11.6667C20.0002 11.4478 19.9571 11.231 19.8732 11.0289C19.7894 10.8267 19.6665 10.643 19.5116 10.4883L12.8449 3.82168C12.6903 3.66677 12.5066 3.54387 12.3044 3.46002C12.1022 3.37617 11.8855 3.33301 11.6666 3.33301C11.4477 3.33301 11.2309 3.37617 11.0287 3.46002C10.8266 3.54387 10.6429 3.66677 10.4882 3.82168L5.96824 8.34168C5.33491 8.97501 4.97824 9.84501 4.99157 10.7333C5.02991 13.1067 5.65824 21.35 12.1549 27.8467C18.6516 34.3433 26.8949 34.97 29.2699 35.01H29.3166C30.1966 35.01 31.0282 34.6633 31.6582 34.0333L36.1782 29.5133C36.3331 29.3587 36.456 29.175 36.5399 28.9728C36.6237 28.7706 36.6669 28.5539 36.6669 28.335C36.6669 28.1161 36.6237 27.8994 36.5399 27.6972C36.456 27.495 36.3331 27.3113 36.1782 27.1567L29.5116 20.4883ZM29.2999 31.675C27.2199 31.64 20.1032 31.0817 14.5116 25.4883C8.90157 19.8783 8.35824 12.7367 8.3249 10.6983L11.6666 7.35668L15.9766 11.6667L13.8216 13.8217C13.6257 14.0174 13.4816 14.2589 13.4025 14.5243C13.3233 14.7897 13.3116 15.0706 13.3682 15.3417C13.4082 15.5333 14.3866 20.0783 17.1532 22.845C19.9199 25.6117 24.4649 26.59 24.6566 26.63C24.9275 26.6883 25.2087 26.6774 25.4743 26.5985C25.7399 26.5196 25.9814 26.3751 26.1766 26.1783L28.3332 24.0233L32.6432 28.3333L29.2999 31.675Z" fill="#232323"/>
</svg>
