<svg width="45" height="45" viewBox="0 0 45 45" fill="none" xmlns="http://www.w3.org/2000/svg">
<path d="M39.9068 15.5171L28.7491 13.8955L23.7613 3.78371C23.625 3.50685 23.4009 3.28273 23.1241 3.1465C22.4297 2.80373 21.586 3.08937 21.2388 3.78371L16.251 13.8955L5.09329 15.5171C4.78567 15.5611 4.50442 15.7061 4.28909 15.9258C4.02877 16.1934 3.88532 16.5533 3.89026 16.9266C3.8952 17.2999 4.04814 17.6559 4.31546 17.9165L12.3882 25.7871L10.481 36.9009C10.4363 37.1594 10.4649 37.4253 10.5636 37.6684C10.6623 37.9115 10.8271 38.1221 11.0394 38.2763C11.2517 38.4305 11.5029 38.5221 11.7646 38.5407C12.0263 38.5594 12.288 38.5044 12.52 38.3819L22.5 33.1348L32.48 38.3819C32.7525 38.5269 33.0689 38.5752 33.3721 38.5225C34.1368 38.3906 34.6509 37.6655 34.5191 36.9009L32.6118 25.7871L40.6846 17.9165C40.9043 17.7012 41.0493 17.4199 41.0933 17.1123C41.2119 16.3433 40.6758 15.6314 39.9068 15.5171Z" fill="#DFC226"/>
</svg>
