<svg width="50" height="50" viewBox="0 0 50 50" fill="none" xmlns="http://www.w3.org/2000/svg">
<path fill-rule="evenodd" clip-rule="evenodd" d="M37.5001 25C37.5001 25.4144 37.3355 25.8119 37.0425 26.1049C36.7494 26.3979 36.352 26.5625 35.9376 26.5625H17.8345L24.5439 33.2688C24.6891 33.414 24.8044 33.5865 24.883 33.7763C24.9616 33.9661 25.0021 34.1696 25.0021 34.375C25.0021 34.5805 24.9616 34.7839 24.883 34.9737C24.8044 35.1635 24.6891 35.336 24.5439 35.4813C24.3986 35.6265 24.2261 35.7418 24.0363 35.8204C23.8465 35.899 23.6431 35.9395 23.4376 35.9395C23.2322 35.9395 23.0287 35.899 22.8389 35.8204C22.6491 35.7418 22.4766 35.6265 22.3314 35.4813L12.9564 26.1063C12.8108 25.9611 12.6954 25.7887 12.6166 25.5989C12.5379 25.409 12.4973 25.2055 12.4973 25C12.4973 24.7945 12.5379 24.591 12.6166 24.4012C12.6954 24.2113 12.8108 24.0389 12.9564 23.8938L22.3314 14.5188C22.6248 14.2254 23.0227 14.0605 23.4376 14.0605C23.8525 14.0605 24.2505 14.2254 24.5439 14.5188C24.8373 14.8122 25.0021 15.2101 25.0021 15.625C25.0021 16.0399 24.8373 16.4379 24.5439 16.7313L17.8345 23.4375H35.9376C36.352 23.4375 36.7494 23.6021 37.0425 23.8952C37.3355 24.1882 37.5001 24.5856 37.5001 25Z" fill="black"/>
</svg>
