<svg width="48" height="47" viewBox="0 0 48 47" fill="none" xmlns="http://www.w3.org/2000/svg">
<path fill-rule="evenodd" clip-rule="evenodd" d="M22.342 6.2465C22.4773 5.81754 22.7458 5.44287 23.1085 5.17692C23.4712 4.91097 23.9093 4.76758 24.3591 4.76758C24.8089 4.76758 25.2469 4.91097 25.6097 5.17692C25.9724 5.44287 26.2409 5.81754 26.3762 6.2465L30.0187 17.4482H41.7687C42.2345 17.4305 42.6934 17.5659 43.075 17.8336C43.4567 18.1013 43.7403 18.4866 43.8823 18.9307C44.0244 19.3747 44.0172 19.853 43.8619 20.2926C43.7065 20.7321 43.4115 21.1087 43.022 21.3648L33.4849 28.2777L37.1274 39.499C37.2715 39.9264 37.2751 40.3887 37.1378 40.8184C37.0005 41.248 36.7294 41.6225 36.3641 41.8872C35.9989 42.1518 35.5586 42.2928 35.1075 42.2894C34.6565 42.2861 34.2183 42.1386 33.857 41.8686L24.3003 34.8773L14.7633 41.8098C14.402 42.0799 13.9638 42.2273 13.5127 42.2307C13.0617 42.234 12.6214 42.0931 12.2561 41.8284C11.8909 41.5638 11.6198 41.1893 11.4825 40.7596C11.3451 40.33 11.3488 39.8677 11.4928 39.4402L15.1353 28.219L5.59825 21.3061C5.20871 21.05 4.91372 20.6734 4.75836 20.2338C4.603 19.7943 4.59582 19.3159 4.73791 18.8719C4.87999 18.4279 5.16354 18.0426 5.54521 17.7749C5.92689 17.5072 6.38572 17.3718 6.85158 17.3894H18.6016L22.342 6.2465Z" fill="#FDBC15"/>
</svg>
