<svg width="38" height="38" viewBox="0 0 38 38" fill="none" xmlns="http://www.w3.org/2000/svg">
<path d="M17.6572 6.43502C18.1965 5.19135 19.9602 5.19135 20.4995 6.43503L22.7736 11.6794C23.2225 12.7146 24.1988 13.4239 25.322 13.5309L31.0125 14.0731C32.3619 14.2017 32.9069 15.8791 31.8908 16.7763L27.6059 20.5598C26.76 21.3066 26.3871 22.4543 26.6324 23.5556L27.8752 29.1351C28.1699 30.4582 26.743 31.4949 25.5757 30.8058L20.6533 27.8997C19.6817 27.326 18.475 27.326 17.5033 27.8997L12.581 30.8058C11.4136 31.4949 9.98677 30.4582 10.2815 29.1351L11.5242 23.5556C11.7695 22.4542 11.3966 21.3066 10.5508 20.5598L6.26588 16.7763C5.24972 15.8791 5.79474 14.2017 7.1442 14.0731L12.8346 13.5309C13.9579 13.4239 14.9341 12.7146 15.383 11.6794L17.6572 6.43502Z" fill="#FDBC15"/>
</svg>
